<svg width="24" height="24" viewBox="0 0 24 24" fill="none" xmlns="http://www.w3.org/2000/svg">
<path fill-rule="evenodd" clip-rule="evenodd" d="M18.5 19.45V10.55C18.5 10.2462 18.2538 10 17.95 10H17V8C17 5.05282 15.5772 3 12 3C8.58968 3 7 5.05282 7 8V10H6.05C5.74624 10 5.5 10.2462 5.5 10.55V19.45C5.5 19.7538 5.74624 20 6.05 20H17.95C18.2538 20 18.5 19.7538 18.5 19.45ZM8.56 8C8.56 6.793 8.88395 5.97042 9.36101 5.45983C9.82086 4.96766 10.6146 4.56 12 4.56C13.4888 4.56 14.2631 4.97853 14.688 5.44517C15.1374 5.93864 15.44 6.75265 15.44 8V10H8.56V8Z" fill="white"/>
</svg>
